<?xml version="1.0" standalone="no"?>
<!DOCTYPE svg PUBLIC "-//W3C//DTD SVG 20010904//EN"
 "http://www.w3.org/TR/2001/REC-SVG-20010904/DTD/svg10.dtd">
<svg version="1.0" xmlns="http://www.w3.org/2000/svg"
 width="920.000000pt" height="920.000000pt" viewBox="0 0 920.000000 920.000000"
 preserveAspectRatio="xMidYMid meet">
<metadata>
Created by potrace 1.14, written by Peter Selinger 2001-2017
</metadata>
<g transform="translate(0.000000,920.000000) scale(0.100000,-0.100000)"
fill="#000000" stroke="none">
<path d="M4575 9148 c-2 -7 -9 -31 -14 -54 -6 -22 -40 -128 -76 -235 -37 -107
-67 -198 -69 -204 -2 -5 -7 -19 -11 -30 -4 -11 -36 -92 -70 -180 -35 -88 -81
-198 -103 -245 -21 -47 -45 -103 -52 -125 -7 -22 -19 -50 -27 -62 -8 -12 -16
-28 -17 -35 -5 -30 -352 -716 -406 -803 -10 -16 -33 -59 -51 -95 -18 -36 -40
-76 -49 -90 -10 -14 -29 -47 -45 -75 -15 -27 -52 -94 -84 -148 -31 -53 -63
-109 -71 -125 -9 -15 -36 -60 -60 -100 -82 -134 -101 -167 -107 -184 -3 -10
-10 -18 -16 -18 -6 0 -8 -3 -4 -6 3 -3 -10 -30 -29 -59 -19 -30 -34 -58 -34
-64 0 -5 -4 -11 -8 -13 -9 -3 -62 -91 -114 -188 -19 -36 -59 -105 -90 -155
-30 -49 -70 -119 -89 -155 -46 -85 -63 -114 -69 -120 -3 -3 -11 -16 -18 -30
-7 -14 -43 -83 -81 -155 -68 -128 -230 -452 -255 -510 -7 -16 -20 -46 -29 -65
-9 -19 -25 -57 -37 -85 -12 -27 -27 -63 -35 -80 -7 -16 -32 -77 -55 -135 -23
-58 -48 -120 -56 -138 -8 -18 -14 -37 -14 -42 0 -5 -5 -21 -12 -37 -6 -15 -12
-32 -13 -38 -2 -5 -10 -31 -19 -57 -18 -54 -42 -139 -91 -328 -3 -13 -27 -119
-41 -185 -14 -65 -41 -224 -49 -290 -3 -22 -7 -56 -10 -75 -19 -142 -24 -432
-11 -675 12 -251 21 -309 78 -540 16 -66 31 -124 32 -130 1 -5 5 -16 9 -23 5
-6 6 -12 3 -12 -3 0 2 -17 11 -38 8 -20 14 -38 13 -40 -2 -3 15 -50 37 -101 8
-18 16 -39 17 -45 1 -6 4 -15 7 -21 4 -5 14 -32 23 -60 10 -27 37 -86 61 -130
48 -87 99 -187 100 -195 1 -13 40 -70 47 -70 4 0 8 -7 8 -15 0 -8 4 -15 8 -15
5 0 15 -12 23 -27 8 -15 25 -38 38 -52 12 -15 30 -40 40 -58 40 -77 355 -397
478 -485 41 -29 97 -71 126 -94 44 -35 229 -138 397 -220 51 -26 120 -52 167
-64 18 -4 51 -17 74 -29 42 -22 98 -38 254 -72 50 -11 97 -21 105 -23 8 -2 40
-7 70 -11 30 -4 64 -9 75 -11 84 -17 387 -22 525 -10 114 10 121 11 328 52 12
2 32 6 45 8 12 2 51 12 87 21 64 17 88 23 102 24 4 1 13 7 20 14 7 6 58 27
113 46 55 18 172 71 260 116 207 106 231 120 286 166 26 22 50 39 54 39 7 0
120 84 146 109 240 230 336 335 435 476 126 180 134 192 134 209 0 9 5 16 10
16 6 0 10 9 10 19 0 11 3 21 8 23 14 6 111 205 152 313 39 105 89 255 106 320
4 17 8 32 9 35 1 3 7 32 15 65 8 33 14 62 15 65 1 3 7 30 13 60 39 184 45 276
46 660 0 278 -3 359 -19 460 -2 14 -7 48 -11 75 -7 53 -8 58 -25 150 -7 33
-13 69 -15 80 -1 11 -3 20 -4 20 -1 0 -3 9 -4 20 -14 103 -140 551 -185 660
-5 11 -26 63 -46 115 -75 190 -210 489 -298 660 -49 96 -101 198 -114 225 -13
28 -28 57 -33 65 -5 8 -32 56 -61 105 -29 50 -64 113 -78 140 -14 28 -28 52
-31 55 -3 3 -14 21 -23 40 -10 19 -37 67 -62 105 -24 39 -55 93 -69 120 -14
28 -48 86 -75 130 -28 44 -56 91 -64 105 -8 14 -23 42 -35 63 -12 20 -30 52
-40 70 -43 74 -163 273 -172 284 -5 7 -10 14 -10 17 0 3 -15 31 -34 63 -18 32
-45 78 -58 103 -14 25 -34 61 -45 80 -11 19 -37 66 -59 105 -21 38 -44 79 -51
90 -6 11 -21 40 -34 65 -12 25 -25 47 -28 50 -3 3 -24 41 -46 85 -21 44 -48
92 -58 108 -10 15 -15 27 -11 27 3 0 2 6 -4 13 -12 14 -171 325 -170 333 0 3
-27 60 -60 127 -33 67 -63 133 -67 147 -4 14 -24 61 -45 105 -36 76 -67 152
-120 290 -12 33 -28 74 -35 90 -19 42 -56 147 -60 165 -2 8 -4 16 -5 18 -2 1
-3 5 -5 10 -1 4 -4 14 -8 22 -3 8 -25 71 -48 140 -23 69 -50 143 -60 164 -11
22 -19 45 -19 52 0 18 -19 28 -25 12z m-1140 -3388 c50 -27 110 -59 135 -71
25 -13 74 -39 110 -59 36 -20 92 -52 125 -70 33 -18 83 -45 110 -61 28 -15 77
-42 110 -59 33 -18 72 -41 88 -52 15 -11 27 -16 27 -12 0 4 8 1 18 -7 19 -15
25 -19 138 -80 44 -23 81 -45 84 -48 3 -3 19 -13 35 -21 17 -8 58 -32 93 -52
34 -21 66 -38 70 -38 4 0 14 -6 21 -12 6 -7 15 -13 19 -13 4 -1 60 -32 124
-70 82 -48 120 -77 127 -94 18 -48 3 -227 -26 -306 -38 -103 -36 -101 -211
-186 -89 -43 -165 -79 -167 -79 -2 0 -51 -22 -109 -49 -57 -28 -126 -60 -153
-72 -85 -39 -166 -76 -248 -114 -80 -37 -125 -57 -135 -60 -3 0 -25 -11 -50
-24 -25 -13 -46 -23 -48 -22 -1 0 -41 -17 -88 -39 -47 -22 -90 -40 -95 -40 -5
0 -9 -5 -9 -10 0 -6 -3 -9 -7 -8 -10 2 -61 -18 -95 -37 -15 -9 -31 -16 -35
-16 -5 -1 -33 -12 -63 -26 -30 -14 -116 -52 -190 -85 -74 -33 -147 -66 -162
-73 -47 -23 -82 -27 -103 -11 -17 12 -20 26 -19 98 1 125 54 294 113 362 12
15 148 87 171 91 25 5 80 31 80 39 0 5 3 7 6 3 3 -3 39 9 79 28 41 18 84 36
97 40 13 4 51 21 86 36 34 16 66 29 70 29 4 0 24 9 45 20 20 11 37 17 37 14 0
-4 6 -1 13 5 8 6 17 8 20 4 4 -3 7 -2 7 4 0 5 19 15 42 22 23 7 53 20 67 29
14 10 25 15 26 13 0 -2 18 4 40 14 22 9 90 37 150 62 61 25 128 53 150 62 22
10 77 33 123 51 45 19 79 37 75 41 -10 8 -84 49 -228 124 -181 95 -239 127
-252 137 -7 6 -13 7 -13 3 0 -4 -6 -3 -12 3 -12 9 -43 26 -208 114 -36 19 -85
46 -110 60 -25 14 -72 40 -105 58 -128 69 -217 126 -226 142 -20 37 -8 196 19
268 5 14 10 27 10 30 1 23 39 93 55 105 33 23 55 18 152 -35z m-820 -1975 c9
-30 18 -67 21 -82 7 -35 98 -311 118 -358 9 -19 23 -52 32 -72 65 -151 170
-335 243 -426 62 -78 186 -194 254 -240 91 -60 123 -81 152 -101 11 -8 40 -17
65 -21 41 -6 49 -4 75 21 36 34 72 56 145 89 30 14 62 29 70 34 30 16 201 4
270 -19 81 -27 109 -46 193 -132 76 -78 109 -136 127 -222 13 -62 15 -243 5
-310 -14 -84 -98 -200 -185 -256 -26 -17 -51 -37 -54 -45 -14 -36 -119 -60
-266 -60 -163 0 -251 19 -299 66 -18 17 -49 38 -69 48 -96 43 -231 140 -323
231 -117 116 -319 375 -319 409 0 5 -3 11 -8 13 -9 4 -112 212 -145 293 -80
196 -144 454 -151 608 0 15 -3 27 -6 27 -13 0 -2 391 15 520 2 14 3 31 4 38 2
27 21 -1 36 -53z m4202 -689 c75 -12 84 -31 70 -151 -9 -77 -28 -141 -54 -183
-40 -61 44 -57 -1027 -55 -1028 2 -1131 4 -1149 22 -30 30 -5 223 38 297 36
61 45 66 152 71 54 3 99 6 100 7 6 4 1843 -3 1870 -8z"/>
</g>
</svg>
